<mxfile host="app.diagrams.net" agent="Mozilla/5.0 (Windows NT 10.0; Win64; x64) AppleWebKit/537.36 (KHTML, like Gecko) Chrome/131.0.0.0 Safari/537.36" version="25.0.3">
  <diagram name="Page-1" id="dhjOXE2AvXDWaYsdJDQE">
    <mxGraphModel dx="1050" dy="557" grid="1" gridSize="10" guides="1" tooltips="1" connect="1" arrows="1" fold="1" page="1" pageScale="1" pageWidth="850" pageHeight="1100" math="0" shadow="0">
      <root>
        <mxCell id="0" />
        <mxCell id="1" parent="0" />
        <mxCell id="IctU7N9knGaHhoZyDTIU-1" value="Web Servers" style="shape=module;align=left;spacingLeft=20;align=center;verticalAlign=top;whiteSpace=wrap;html=1;" parent="1" vertex="1">
          <mxGeometry x="60" y="60" width="100" height="50" as="geometry" />
        </mxCell>
        <mxCell id="IctU7N9knGaHhoZyDTIU-2" value="Login" style="shape=folder;fontStyle=1;spacingTop=10;tabWidth=40;tabHeight=14;tabPosition=left;html=1;whiteSpace=wrap;" parent="1" vertex="1">
          <mxGeometry x="90" y="170" width="70" height="50" as="geometry" />
        </mxCell>
        <mxCell id="IctU7N9knGaHhoZyDTIU-3" value="Video Pembelajaran" style="html=1;dropTarget=0;whiteSpace=wrap;" parent="1" vertex="1">
          <mxGeometry x="230" y="220" width="180" height="90" as="geometry" />
        </mxCell>
        <mxCell id="IctU7N9knGaHhoZyDTIU-4" value="" style="shape=module;jettyWidth=8;jettyHeight=4;" parent="IctU7N9knGaHhoZyDTIU-3" vertex="1">
          <mxGeometry x="1" width="20" height="20" relative="1" as="geometry">
            <mxPoint x="-27" y="7" as="offset" />
          </mxGeometry>
        </mxCell>
        <mxCell id="qe0GWPUchXvKdONdLm0l-3" value="Database" style="shape=module;align=left;spacingLeft=20;align=center;verticalAlign=top;whiteSpace=wrap;html=1;" parent="1" vertex="1">
          <mxGeometry x="250" y="30" width="100" height="80" as="geometry" />
        </mxCell>
        <mxCell id="qe0GWPUchXvKdONdLm0l-4" value="User" style="shape=module;align=left;spacingLeft=20;align=center;verticalAlign=top;whiteSpace=wrap;html=1;" parent="1" vertex="1">
          <mxGeometry x="75" y="270" width="100" height="80" as="geometry" />
        </mxCell>
        <mxCell id="NkO9gVF_rOofzB6WHZbh-1" value="" style="endArrow=classic;startArrow=classic;html=1;rounded=0;exitX=1;exitY=0.5;exitDx=0;exitDy=0;entryX=0.144;entryY=0.658;entryDx=0;entryDy=0;entryPerimeter=0;" edge="1" parent="1" source="IctU7N9knGaHhoZyDTIU-1" target="qe0GWPUchXvKdONdLm0l-3">
          <mxGeometry width="50" height="50" relative="1" as="geometry">
            <mxPoint x="110" y="290" as="sourcePoint" />
            <mxPoint x="260" y="90" as="targetPoint" />
            <Array as="points" />
          </mxGeometry>
        </mxCell>
        <mxCell id="NkO9gVF_rOofzB6WHZbh-2" value="" style="endArrow=classic;startArrow=classic;html=1;rounded=0;entryX=0.25;entryY=1;entryDx=0;entryDy=0;" edge="1" parent="1" target="qe0GWPUchXvKdONdLm0l-3">
          <mxGeometry width="50" height="50" relative="1" as="geometry">
            <mxPoint x="160" y="200" as="sourcePoint" />
            <mxPoint x="200" y="110" as="targetPoint" />
            <Array as="points">
              <mxPoint x="275" y="200" />
            </Array>
          </mxGeometry>
        </mxCell>
        <mxCell id="NkO9gVF_rOofzB6WHZbh-3" value="" style="endArrow=classic;html=1;rounded=0;entryX=0.5;entryY=1;entryDx=0;entryDy=0;exitX=0;exitY=0;exitDx=20;exitDy=0;exitPerimeter=0;" edge="1" parent="1" source="IctU7N9knGaHhoZyDTIU-2" target="IctU7N9knGaHhoZyDTIU-1">
          <mxGeometry width="50" height="50" relative="1" as="geometry">
            <mxPoint x="90" y="190" as="sourcePoint" />
            <mxPoint x="140" y="140" as="targetPoint" />
          </mxGeometry>
        </mxCell>
        <mxCell id="NkO9gVF_rOofzB6WHZbh-4" value="" style="endArrow=classic;html=1;rounded=0;entryX=0.5;entryY=1;entryDx=0;entryDy=0;entryPerimeter=0;exitX=0.5;exitY=0;exitDx=0;exitDy=0;" edge="1" parent="1" source="qe0GWPUchXvKdONdLm0l-4" target="IctU7N9knGaHhoZyDTIU-2">
          <mxGeometry width="50" height="50" relative="1" as="geometry">
            <mxPoint x="160" y="330" as="sourcePoint" />
            <mxPoint x="210" y="280" as="targetPoint" />
          </mxGeometry>
        </mxCell>
        <mxCell id="NkO9gVF_rOofzB6WHZbh-5" value="" style="endArrow=classic;html=1;rounded=0;entryX=0.632;entryY=0.988;entryDx=0;entryDy=0;entryPerimeter=0;exitX=0.458;exitY=0.002;exitDx=0;exitDy=0;exitPerimeter=0;" edge="1" parent="1" source="IctU7N9knGaHhoZyDTIU-3" target="qe0GWPUchXvKdONdLm0l-3">
          <mxGeometry width="50" height="50" relative="1" as="geometry">
            <mxPoint x="313" y="210" as="sourcePoint" />
            <mxPoint x="360" y="190" as="targetPoint" />
          </mxGeometry>
        </mxCell>
      </root>
    </mxGraphModel>
  </diagram>
</mxfile>
